<?xml version="1.0" encoding="utf-8"?>
<!-- Generator: Adobe Illustrator 19.2.1, SVG Export Plug-In . SVG Version: 6.00 Build 0)  -->
<svg version="1.1" id="Layer_1" xmlns="http://www.w3.org/2000/svg" xmlns:xlink="http://www.w3.org/1999/xlink" x="0px" y="0px"
	 viewBox="0 0 100 68.8" style="enable-background:new 0 0 100 68.8;" xml:space="preserve">
<style type="text/css">
	.st0{fill:#FFFFFF;}
</style>
<g>
	<path class="st0" d="M59.7,24.8c0,1.3-0.3,2.7-1.2,4H61V8.6h-8.4v8.3C57.2,18.3,59.7,21.2,59.7,24.8"/>
	<path class="st0" d="M45.2,16.1c1.9,0,3.7,0.4,5,0.8c-2.9-0.5-7.3,0.2-9.6,2v9.9H49V17.6c1.8,0.3,3.2,1.1,4,1.6v9.6h1.8
		c-1.7,1.9-4.9,3.1-7.7,2.7v0.4c8,0.6,11.3-3.2,11.3-7.4c0-5-4.7-7.9-9.5-8.5V8.6h-8.4v7.5c-5.4,1.1-10.7,4.3-10.7,9.7
		c0,8.2,11.5,13.3,21.5,13.3c15.2,0,26.9-7.3,26.9-17.7C78.3,8.9,61.4,0,48.1,0C32.9,0,21.7,9.7,21.7,20c0,5.3,3,9.8,6.8,12.9
		l0.3-0.2c-3-2.5-5.7-6.4-5.7-11.7C23.9,9.7,37.8,3.4,50.2,3.4c8.8,0,24.5,2,24.5,16.7c0,7.6-8.2,17.6-25.3,17.6
		c-8.8,0-15.6-4.7-15.6-11.5C33.8,20.3,38.4,16.1,45.2,16.1"/>
	<polyline class="st0" points="12.7,68.4 12.7,67.3 15.7,67.3 15.7,57.3 7.8,57.3 7.8,67.3 10.8,67.3 10.8,68.4 0,68.4 0,67.3 
		2.8,67.3 2.8,46.9 0,46.9 0,45.8 10.8,45.8 10.8,46.9 7.8,46.9 7.8,55.9 15.7,55.9 15.7,46.9 12.7,46.9 12.7,45.8 23.4,45.8 
		23.4,46.9 20.7,46.9 20.7,67.3 23.4,67.3 23.4,68.4 12.7,68.4 	"/>
	<rect x="27.6" y="45.8" class="st0" width="4.9" height="2.7"/>
	<polyline class="st0" points="25.2,68.4 25.2,67.3 27.8,67.3 27.8,53.3 25.2,53.3 25.2,52.2 32.7,52.2 32.7,67.3 35.1,67.3 
		35.1,68.4 25.2,68.4 	"/>
	<polyline class="st0" points="36.2,68.4 36.2,67.3 38.9,67.3 38.9,44 36.2,44 36.2,42.8 43.8,42.8 43.8,67.3 46.4,67.3 46.4,68.4 
		36.2,68.4 	"/>
	<path class="st0" d="M54,68.4c-2.7,0-4.1-1.4-4.1-3.5V53.3h-2.6v-1.2h2.6v-6.4c1.5,0,3,0,4.6,0v6.4h3.8v1.2h-3.8v13.9h3.9v1.2H54"
		/>
	<path class="st0" d="M77.2,59.9c-0.4-6.1-5.5-8.3-9.1-8.3c-4,0-9.3,2.5-9.3,8.5c0,4.4,3.2,8.6,9.4,8.6c5.6,0,7.9-3.8,8.5-5.3
		C77.2,62.4,77.3,61.1,77.2,59.9z M68.1,67.9c-1.7,0-2.7-0.9-3.2-1.8c-0.3-0.6-0.7-1.4-0.7-6c0-3.4,0.1-7.4,3.9-7.4
		c1.5,0,2.7,0.6,3.3,2c0.2,0.5,0.5,1,0.5,5.2C72,63.8,72,67.9,68.1,67.9z"/>
	<path class="st0" d="M90.3,68.4v-1.2h2.2v-9.6c0-2.2,0-4.3-2.4-4.3c-1.3,0-3.5,1.3-4.1,3.5c-0.2,0.7-0.1,1.4-0.1,3.2v7.1h2.5v1.2
		h-10v-1.2H81V53.3h-2.6v-1.2h7.5v2.5c0.8-1,1.5-1.8,3.1-2.4c1.2-0.5,2.2-0.6,2.9-0.6c0.3,0,1.2,0,2.2,0.3c3.1,0.9,3.3,3.3,3.3,5
		v10.3h2.6v1.2L90.3,68.4"/>
</g>
</svg>
